<svg 
 xmlns="http://www.w3.org/2000/svg"
 xmlns:xlink="http://www.w3.org/1999/xlink"
 width="11px" height="20px">
<path fill-rule="evenodd"  fill="rgb(255, 255, 255)"
 d="M10.919,10.085 L10.965,10.033 L2.746,1.305 C2.487,1.022 2.143,0.865 1.777,0.865 C1.411,0.865 1.066,1.022 0.808,1.305 L0.766,1.351 C0.507,1.635 0.365,2.013 0.365,2.415 C0.365,2.816 0.507,3.194 0.766,3.479 L5.653,8.549 L6.819,10.085 L5.653,11.620 L0.766,16.691 C0.507,16.975 0.365,17.352 0.365,17.755 C0.365,18.156 0.507,18.535 0.766,18.818 L0.808,18.864 C1.066,19.148 1.411,19.304 1.777,19.304 C2.143,19.304 2.487,19.148 2.746,18.864 L10.965,10.135 L10.919,10.085 Z"/>
</svg>