<svg 
 xmlns="http://www.w3.org/2000/svg"
 xmlns:xlink="http://www.w3.org/1999/xlink"
 width="12px" height="10px">
<path fill-rule="evenodd"  fill="rgb(255, 255, 255)"
 d="M11.971,5.001 L12.001,4.973 L6.943,0.237 C6.774,0.083 6.549,-0.001 6.310,-0.001 C6.072,-0.001 5.847,0.084 5.678,0.237 L5.651,0.261 C5.482,0.415 5.389,0.618 5.389,0.834 C5.389,1.051 5.482,1.255 5.651,1.408 L8.534,4.172 L0.893,4.172 C0.399,4.172 -0.002,4.536 -0.002,4.984 L-0.002,5.019 C-0.002,5.466 0.399,5.830 0.893,5.830 L8.534,5.830 L5.651,8.594 C5.482,8.746 5.389,8.950 5.389,9.167 C5.389,9.384 5.482,9.588 5.651,9.741 L5.678,9.765 C5.847,9.919 6.072,10.003 6.310,10.003 C6.549,10.003 6.774,9.919 6.943,9.765 L12.001,5.028 L11.971,5.001 Z"/>
</svg>