<svg 
 xmlns="http://www.w3.org/2000/svg"
 xmlns:xlink="http://www.w3.org/1999/xlink"
 width="35px" height="42px">
<path fill-rule="evenodd"  fill="rgb(255, 93, 0)"
 d="M27.066,31.134 C26.219,31.736 25.714,32.790 25.714,33.954 L25.714,36.031 L8.571,36.031 L8.571,33.890 C8.571,32.771 7.986,31.697 6.965,30.943 C2.561,27.685 0.022,22.681 0.004,17.217 C-0.028,8.005 7.426,0.285 16.618,0.008 L17.147,-0.000 C26.599,-0.000 34.290,7.697 34.290,17.157 C34.290,22.694 31.590,27.918 27.066,31.134 ZM17.147,3.432 L16.722,3.438 C9.369,3.660 3.408,9.835 3.433,17.205 C3.448,21.575 5.477,25.576 9.004,28.183 C10.533,29.314 11.537,30.877 11.874,32.599 L22.411,32.599 C22.737,30.865 23.685,29.328 25.081,28.336 C28.700,25.763 30.862,21.584 30.862,17.157 C30.862,9.589 24.709,3.432 17.147,3.432 ZM21.999,18.119 L17.134,22.975 L12.249,18.124 L10.002,21.534 L7.139,19.644 L11.693,12.738 L17.127,18.134 L22.528,12.746 L27.137,19.627 L24.291,21.538 L21.999,18.119 ZM25.719,41.178 L8.576,41.178 L8.576,37.747 L25.719,37.747 L25.719,41.178 Z"/>
</svg>