<svg 
 xmlns="http://www.w3.org/2000/svg"
 xmlns:xlink="http://www.w3.org/1999/xlink"
 width="40px" height="32px">
<path fill-rule="evenodd"  fill="rgb(255, 93, 0)"
 d="M26.989,12.011 L19.858,0.539 L12.727,12.011 L-0.000,1.909 L-0.000,31.965 L39.717,31.965 L39.717,1.909 L26.989,12.011 ZM36.407,27.161 L30.521,17.693 L27.901,19.755 L33.177,28.242 L22.530,19.791 L36.407,8.776 L36.407,27.161 ZM28.329,28.637 L11.388,28.637 L19.858,21.912 L28.329,28.637 ZM19.858,6.818 L24.376,14.086 L19.858,17.671 L15.341,14.086 L19.858,6.818 ZM17.187,19.791 L6.540,28.242 L11.813,19.761 L9.200,17.687 L3.310,27.162 L3.310,8.776 L17.187,19.791 Z"/>
</svg>