<svg 
 xmlns="http://www.w3.org/2000/svg"
 xmlns:xlink="http://www.w3.org/1999/xlink"
 width="25px" height="30px">
<path fill-rule="evenodd"  fill="rgb(255, 93, 0)"
 d="M20.657,21.005 L12.524,29.093 C12.260,29.356 11.832,29.356 11.567,29.093 L3.444,21.015 C-1.139,16.374 -1.142,8.827 3.435,4.191 L3.592,4.036 C5.847,1.833 8.849,0.620 12.046,0.620 C15.243,0.620 18.245,1.833 20.499,4.036 L20.647,4.181 C25.229,8.824 25.233,16.369 20.657,21.005 ZM18.864,5.941 L18.732,5.812 C16.951,4.073 14.577,3.115 12.048,3.115 C9.517,3.115 7.140,4.074 5.356,5.815 L5.218,5.953 C1.600,9.617 1.604,15.585 5.227,19.254 L11.567,25.559 C11.832,25.821 12.260,25.821 12.524,25.559 L18.873,19.244 C22.492,15.580 22.488,9.612 18.864,5.941 ZM11.852,17.807 C11.588,18.070 11.159,18.070 10.895,17.807 L6.916,13.849 C6.652,13.587 6.652,13.160 6.916,12.897 L7.736,12.082 C8.000,11.819 8.428,11.819 8.692,12.082 L10.895,14.272 C11.159,14.535 11.588,14.535 11.852,14.272 L15.970,10.178 C16.234,9.915 16.662,9.915 16.926,10.178 L17.746,10.994 C18.010,11.256 18.010,11.682 17.746,11.945 L11.852,17.807 Z"/>
</svg>