<svg 
 xmlns="http://www.w3.org/2000/svg"
 xmlns:xlink="http://www.w3.org/1999/xlink"
 width="30px" height="30px">
<path fill-rule="evenodd"  fill="rgb(255, 93, 0)"
 d="M22.299,9.634 L23.880,11.479 L14.708,19.341 L7.881,15.244 L9.132,13.160 L14.457,16.355 L22.299,9.634 ZM14.583,30.000 C8.622,30.000 3.163,26.271 0.998,20.722 L3.262,19.839 C5.066,24.463 9.615,27.570 14.583,27.570 C21.283,27.570 26.735,22.119 26.735,15.418 C26.735,8.716 21.283,3.265 14.583,3.265 C10.158,3.265 6.197,5.600 4.053,9.341 L9.722,9.341 L9.722,11.772 L-0.000,11.772 L-0.000,2.050 L2.430,2.050 L2.430,7.350 C5.089,3.318 9.588,0.835 14.583,0.835 C22.624,0.835 29.165,7.377 29.165,15.418 C29.165,23.458 22.624,30.000 14.583,30.000 Z"/>
</svg>