<svg 
 xmlns="http://www.w3.org/2000/svg"
 xmlns:xlink="http://www.w3.org/1999/xlink"
 width="37px" height="36px">
<path fill-rule="evenodd"  fill="rgb(255, 93, 0)"
 d="M29.059,32.552 C25.901,34.851 22.199,36.000 18.498,36.000 C14.796,36.000 11.095,34.851 7.936,32.552 C1.619,27.957 -1.004,19.871 1.409,12.434 C3.822,4.997 10.689,0.000 18.498,0.000 C26.307,0.000 33.174,4.997 35.586,12.434 C38.000,19.871 35.377,27.957 29.059,32.552 ZM34.142,12.904 C31.934,6.095 25.647,1.521 18.498,1.521 C11.349,1.521 5.062,6.095 2.854,12.904 C0.644,19.713 3.046,27.114 8.829,31.322 C14.612,35.531 22.384,35.531 28.167,31.322 C33.950,27.114 36.352,19.713 34.142,12.904 ZM27.053,23.335 L9.943,23.335 C9.695,23.335 9.492,23.131 9.492,22.883 L9.492,16.353 C9.492,16.104 9.687,15.957 9.925,16.027 L17.848,18.340 C18.086,18.410 18.345,18.481 18.424,18.498 C18.424,18.498 18.424,18.498 18.498,18.498 C18.572,18.498 18.572,18.498 18.572,18.498 C18.651,18.481 18.910,18.410 19.148,18.340 L27.071,16.027 C27.309,15.957 27.504,16.104 27.504,16.353 L27.504,22.883 C27.504,23.131 27.301,23.335 27.053,23.335 ZM26.857,15.030 L18.750,17.396 C18.585,17.445 18.411,17.445 18.246,17.396 L10.139,15.030 C9.756,14.917 9.492,14.565 9.492,14.165 L9.492,13.566 C9.492,13.069 9.894,12.665 10.391,12.665 L26.605,12.665 C27.102,12.665 27.504,13.069 27.504,13.566 L27.504,14.165 C27.504,14.565 27.240,14.917 26.857,15.030 Z"/>
</svg>